<svg width="32" height="41" viewBox="0 0 32 41" fill="none" xmlns="http://www.w3.org/2000/svg">
<path d="M30.82 11.1287L21.16 1.26749C20.42 0.512078 19.4 0.0833282 18.34 0.0833282H4C1.8 0.0833282 0.0200005 1.92083 0.0200005 4.16666L0 36.8333C0 39.0792 1.78 40.9167 3.98 40.9167H28C30.2 40.9167 32 39.0792 32 36.8333V14.0279C32 12.9458 31.58 11.9046 30.82 11.1287ZM20 22.5417C21.1 22.5417 22 23.4604 22 24.5833V30.7083C22 31.8312 21.1 32.75 20 32.75H18C18 33.8729 17.1 34.7917 16 34.7917C14.9 34.7917 14 33.8729 14 32.75H12C10.9 32.75 10 31.8312 10 30.7083C10 29.5854 10.9 28.6667 12 28.6667H18V26.625H12C10.9 26.625 10 25.7062 10 24.5833V18.4583C10 17.3354 10.9 16.4167 12 16.4167H14C14 15.2937 14.9 14.375 16 14.375C17.1 14.375 18 15.2937 18 16.4167H20C21.1 16.4167 22 17.3354 22 18.4583C22 19.5812 21.1 20.5 20 20.5H14V22.5417H20ZM20 12.3333C18.9 12.3333 18 11.4146 18 10.2917V3.14583L27 12.3333H20Z" fill="url(#paint0_linear_507_177)"/>
<defs>
<linearGradient id="paint0_linear_507_177" x1="0" y1="20.5" x2="32" y2="20.5" gradientUnits="userSpaceOnUse">
<stop stop-color="#675ECD"/>
<stop offset="1" stop-color="#7572F0"/>
</linearGradient>
</defs>
</svg>
